<svg xmlns="http://www.w3.org/2000/svg" role="img" aria-labelledby="animated-features-2026-graph-title animated-features-2026-graph-desc" viewBox="0 0 1920 1080">
<title id="animated-features-2026-graph-title">Animated features — 2026 downloads by week</title>
<desc id="animated-features-2026-graph-desc">One line per selected media object, adjusted to the 2025 ITU Internet-user scale.</desc>
<style>
.axis{stroke:rgb(118,118,118);stroke-width:1}
.grid{stroke:rgb(222,222,222);stroke-width:1}
.label{font-family:Apercu;fill:rgb(118,118,118)}
.small{font-family:Apercu;fill:rgb(118,118,118)}
</style>
<text x="960.0" y="90" text-anchor="middle" class="label" font-size="26">Animated features — 2026 downloads by week</text>
<text x="960.0" y="126" text-anchor="middle" class="small" font-size="16">one line per selected media object, adjusted to the 2025 ITU Internet-user scale</text>
<line x1="200" y1="870" x2="1720" y2="870" class="grid"/>
<text x="184" y="875" text-anchor="end" class="small" font-size="14">0.0M</text>
<line x1="200" y1="730" x2="1720" y2="730" class="grid"/>
<text x="184" y="735" text-anchor="end" class="small" font-size="14">20.0M</text>
<line x1="200" y1="590" x2="1720" y2="590" class="grid"/>
<text x="184" y="595" text-anchor="end" class="small" font-size="14">40.0M</text>
<line x1="200" y1="450" x2="1720" y2="450" class="grid"/>
<text x="184" y="455" text-anchor="end" class="small" font-size="14">60.0M</text>
<line x1="200" y1="310" x2="1720" y2="310" class="grid"/>
<text x="184" y="315" text-anchor="end" class="small" font-size="14">80.0M</text>
<line x1="200" y1="170" x2="1720" y2="170" class="grid"/>
<text x="184" y="175" text-anchor="end" class="small" font-size="14">100.0M</text>
<line x1="200" y1="170" x2="200" y2="870" class="grid"/>
<text x="200" y="900" text-anchor="middle" class="small" font-size="14">1</text>
<line x1="443.2" y1="170" x2="443.2" y2="870" class="grid"/>
<text x="443.2" y="900" text-anchor="middle" class="small" font-size="14">5</text>
<line x1="747.2" y1="170" x2="747.2" y2="870" class="grid"/>
<text x="747.2" y="900" text-anchor="middle" class="small" font-size="14">10</text>
<line x1="1051.2" y1="170" x2="1051.2" y2="870" class="grid"/>
<text x="1051.2" y="900" text-anchor="middle" class="small" font-size="14">15</text>
<line x1="1355.2" y1="170" x2="1355.2" y2="870" class="grid"/>
<text x="1355.2" y="900" text-anchor="middle" class="small" font-size="14">20</text>
<line x1="1659.2" y1="170" x2="1659.2" y2="870" class="grid"/>
<text x="1659.2" y="900" text-anchor="middle" class="small" font-size="14">25</text>
<line x1="1720" y1="170" x2="1720" y2="870" class="grid"/>
<text x="1720" y="900" text-anchor="middle" class="small" font-size="14">26</text>
<line x1="200" y1="170" x2="200" y2="870" class="axis"/>
<line x1="200" y1="870" x2="1720" y2="870" class="axis"/>
<text x="960.0" y="938" text-anchor="middle" class="label" font-size="18">WEEK</text>
<text x="74" y="520.0" text-anchor="middle" transform="rotate(-90 74 520.0)" class="label" font-size="18">DOWNLOADERS</text>
<text x="1760" y="170" class="label" font-size="18">MEDIA OBJECTS</text>
<text x="1760" y="198" class="small" font-size="14">2017: 1-3 · 2018: 4-2 · 2019: 7-3 · 2020: 2-2 · 2021: 5-3 · 2022: 8-4 · 2023: 10-4 · 2024: 3-3 · 2025: solid · 2026: 14-4</text>
<g id="composite-chart-animated-features-2026">
<g id="animated-features-2026-line-graph-1-zootopia-2">
<g id="polyline-animated-features-2026-line-graph-1-zootopia-2">
<polyline points="200,854.02 260.8,838.39 321.6,821.86 382.4,805.19 443.2,790.46 504,772.24 564.8,751.07 625.6,729.01 686.4,707.7 747.2,685.77 808,664.27 868.8,644.05 929.6,625.59 990.4,607.9 1051.2,590.14 1112,570.55 1172.8,551.89 1233.6,532.54 1294.4,516.08 1355.2,498.56 1416,478.7 1476.8,459.71 1537.6,442.13 1598.4,424.92 1659.2,408.47 1720,392.28" stroke-linecap="round" style="fill:rgb(0,114,178); fill-opacity:0; stroke:rgb(0,114,178); stroke-opacity:1; stroke-width:2" stroke-dasharray="14 4"/>
</g>
<g id="markers-animated-features-2026-line-graph-1-zootopia-2">
<circle cx="200" cy="854.02" r="6" style="fill:rgb(0,114,178); fill-opacity:1; stroke:rgb(0,114,178); stroke-opacity:0; stroke-width:2"><title>zootopia-2
week: 1
2,283,223</title></circle>
<circle cx="260.8" cy="838.39" r="6" style="fill:rgb(0,114,178); fill-opacity:1; stroke:rgb(0,114,178); stroke-opacity:0; stroke-width:2"><title>zootopia-2
week: 2
4,515,283</title></circle>
<circle cx="321.6" cy="821.86" r="6" style="fill:rgb(0,114,178); fill-opacity:1; stroke:rgb(0,114,178); stroke-opacity:0; stroke-width:2"><title>zootopia-2
week: 3
6,877,038</title></circle>
<circle cx="382.4" cy="805.19" r="6" style="fill:rgb(0,114,178); fill-opacity:1; stroke:rgb(0,114,178); stroke-opacity:0; stroke-width:2"><title>zootopia-2
week: 4
9,258,948</title></circle>
<circle cx="443.2" cy="790.46" r="6" style="fill:rgb(0,114,178); fill-opacity:1; stroke:rgb(0,114,178); stroke-opacity:0; stroke-width:2"><title>zootopia-2
week: 5
11,362,554</title></circle>
<circle cx="504" cy="772.24" r="6" style="fill:rgb(0,114,178); fill-opacity:1; stroke:rgb(0,114,178); stroke-opacity:0; stroke-width:2"><title>zootopia-2
week: 6
13,966,120</title></circle>
<circle cx="564.8" cy="751.07" r="6" style="fill:rgb(0,114,178); fill-opacity:1; stroke:rgb(0,114,178); stroke-opacity:0; stroke-width:2"><title>zootopia-2
week: 7
16,989,790</title></circle>
<circle cx="625.6" cy="729.01" r="6" style="fill:rgb(0,114,178); fill-opacity:1; stroke:rgb(0,114,178); stroke-opacity:0; stroke-width:2"><title>zootopia-2
week: 8
20,140,863</title></circle>
<circle cx="686.4" cy="707.7" r="6" style="fill:rgb(0,114,178); fill-opacity:1; stroke:rgb(0,114,178); stroke-opacity:0; stroke-width:2"><title>zootopia-2
week: 9
23,186,086</title></circle>
<circle cx="747.2" cy="685.77" r="6" style="fill:rgb(0,114,178); fill-opacity:1; stroke:rgb(0,114,178); stroke-opacity:0; stroke-width:2"><title>zootopia-2
week: 10
26,318,840</title></circle>
<circle cx="808" cy="664.27" r="6" style="fill:rgb(0,114,178); fill-opacity:1; stroke:rgb(0,114,178); stroke-opacity:0; stroke-width:2"><title>zootopia-2
week: 11
29,389,310</title></circle>
<circle cx="868.8" cy="644.05" r="6" style="fill:rgb(0,114,178); fill-opacity:1; stroke:rgb(0,114,178); stroke-opacity:0; stroke-width:2"><title>zootopia-2
week: 12
32,279,102</title></circle>
<circle cx="929.6" cy="625.59" r="6" style="fill:rgb(0,114,178); fill-opacity:1; stroke:rgb(0,114,178); stroke-opacity:0; stroke-width:2"><title>zootopia-2
week: 13
34,915,638</title></circle>
<circle cx="990.4" cy="607.9" r="6" style="fill:rgb(0,114,178); fill-opacity:1; stroke:rgb(0,114,178); stroke-opacity:0; stroke-width:2"><title>zootopia-2
week: 14
37,442,722</title></circle>
<circle cx="1051.2" cy="590.14" r="6" style="fill:rgb(0,114,178); fill-opacity:1; stroke:rgb(0,114,178); stroke-opacity:0; stroke-width:2"><title>zootopia-2
week: 15
39,979,923</title></circle>
<circle cx="1112" cy="570.55" r="6" style="fill:rgb(0,114,178); fill-opacity:1; stroke:rgb(0,114,178); stroke-opacity:0; stroke-width:2"><title>zootopia-2
week: 16
42,778,411</title></circle>
<circle cx="1172.8" cy="551.89" r="6" style="fill:rgb(0,114,178); fill-opacity:1; stroke:rgb(0,114,178); stroke-opacity:0; stroke-width:2"><title>zootopia-2
week: 17
45,444,256</title></circle>
<circle cx="1233.6" cy="532.54" r="6" style="fill:rgb(0,114,178); fill-opacity:1; stroke:rgb(0,114,178); stroke-opacity:0; stroke-width:2"><title>zootopia-2
week: 18
48,208,871</title></circle>
<circle cx="1294.4" cy="516.08" r="6" style="fill:rgb(0,114,178); fill-opacity:1; stroke:rgb(0,114,178); stroke-opacity:0; stroke-width:2"><title>zootopia-2
week: 19
50,559,421</title></circle>
<circle cx="1355.2" cy="498.56" r="6" style="fill:rgb(0,114,178); fill-opacity:1; stroke:rgb(0,114,178); stroke-opacity:0; stroke-width:2"><title>zootopia-2
week: 20
53,063,533</title></circle>
<circle cx="1416" cy="478.7" r="6" style="fill:rgb(0,114,178); fill-opacity:1; stroke:rgb(0,114,178); stroke-opacity:0; stroke-width:2"><title>zootopia-2
week: 21
55,900,429</title></circle>
<circle cx="1476.8" cy="459.71" r="6" style="fill:rgb(0,114,178); fill-opacity:1; stroke:rgb(0,114,178); stroke-opacity:0; stroke-width:2"><title>zootopia-2
week: 22
58,612,884</title></circle>
<circle cx="1537.6" cy="442.13" r="6" style="fill:rgb(0,114,178); fill-opacity:1; stroke:rgb(0,114,178); stroke-opacity:0; stroke-width:2"><title>zootopia-2
week: 23
61,124,447</title></circle>
<circle cx="1598.4" cy="424.92" r="6" style="fill:rgb(0,114,178); fill-opacity:1; stroke:rgb(0,114,178); stroke-opacity:0; stroke-width:2"><title>zootopia-2
week: 24
63,582,176</title></circle>
<circle cx="1659.2" cy="408.47" r="6" style="fill:rgb(0,114,178); fill-opacity:1; stroke:rgb(0,114,178); stroke-opacity:0; stroke-width:2"><title>zootopia-2
week: 25
65,932,580</title></circle>
<circle cx="1720" cy="392.28" r="6" style="fill:rgb(0,114,178); fill-opacity:1; stroke:rgb(0,114,178); stroke-opacity:0; stroke-width:2"><title>zootopia-2
week: 26
68,245,094</title></circle>
</g>
</g>
<line x1="1760" y1="230" x2="1792" y2="230" stroke="rgb(0,114,178)" stroke-width="2" stroke-dasharray="14 4"/>
<text x="1800" y="235" class="small" font-size="14">2026 · zootopia-2</text>
</g>
</svg>
