<svg xmlns="http://www.w3.org/2000/svg" role="img" aria-labelledby="netflix-2026-graph-title netflix-2026-graph-desc" viewBox="0 0 1920 1080">
<title id="netflix-2026-graph-title">Netflix — 2026 downloads by week</title>
<desc id="netflix-2026-graph-desc">One line per selected media object, adjusted to the 2025 ITU Internet-user scale.</desc>
<style>
.axis{stroke:rgb(118,118,118);stroke-width:1}
.grid{stroke:rgb(222,222,222);stroke-width:1}
.label{font-family:Apercu;fill:rgb(118,118,118)}
.small{font-family:Apercu;fill:rgb(118,118,118)}
</style>
<text x="960.0" y="90" text-anchor="middle" class="label" font-size="26">Netflix — 2026 downloads by week</text>
<text x="960.0" y="126" text-anchor="middle" class="small" font-size="16">one line per selected media object, adjusted to the 2025 ITU Internet-user scale</text>
<line x1="200" y1="870" x2="1720" y2="870" class="grid"/>
<text x="184" y="875" text-anchor="end" class="small" font-size="14">0.0M</text>
<line x1="200" y1="730" x2="1720" y2="730" class="grid"/>
<text x="184" y="735" text-anchor="end" class="small" font-size="14">4.0M</text>
<line x1="200" y1="590" x2="1720" y2="590" class="grid"/>
<text x="184" y="595" text-anchor="end" class="small" font-size="14">8.0M</text>
<line x1="200" y1="450" x2="1720" y2="450" class="grid"/>
<text x="184" y="455" text-anchor="end" class="small" font-size="14">12.0M</text>
<line x1="200" y1="310" x2="1720" y2="310" class="grid"/>
<text x="184" y="315" text-anchor="end" class="small" font-size="14">16.0M</text>
<line x1="200" y1="170" x2="1720" y2="170" class="grid"/>
<text x="184" y="175" text-anchor="end" class="small" font-size="14">20.0M</text>
<line x1="200" y1="170" x2="200" y2="870" class="grid"/>
<text x="200" y="900" text-anchor="middle" class="small" font-size="14">1</text>
<line x1="605.33" y1="170" x2="605.33" y2="870" class="grid"/>
<text x="605.33" y="900" text-anchor="middle" class="small" font-size="14">5</text>
<line x1="1112" y1="170" x2="1112" y2="870" class="grid"/>
<text x="1112" y="900" text-anchor="middle" class="small" font-size="14">10</text>
<line x1="1618.67" y1="170" x2="1618.67" y2="870" class="grid"/>
<text x="1618.67" y="900" text-anchor="middle" class="small" font-size="14">15</text>
<line x1="1720" y1="170" x2="1720" y2="870" class="grid"/>
<text x="1720" y="900" text-anchor="middle" class="small" font-size="14">16</text>
<line x1="200" y1="170" x2="200" y2="870" class="axis"/>
<line x1="200" y1="870" x2="1720" y2="870" class="axis"/>
<text x="960.0" y="938" text-anchor="middle" class="label" font-size="18">WEEK</text>
<text x="74" y="520.0" text-anchor="middle" transform="rotate(-90 74 520.0)" class="label" font-size="18">DOWNLOADERS</text>
<text x="1760" y="170" class="label" font-size="18">MEDIA OBJECTS</text>
<text x="1760" y="198" class="small" font-size="14">2017: 1-3 · 2018: 4-2 · 2019: 7-3 · 2020: 2-2 · 2021: 5-3 · 2022: 8-4 · 2023: 10-4 · 2024: 3-3 · 2025: solid · 2026: 14-4</text>
<g id="composite-chart-netflix-2026">
<g id="netflix-2026-line-graph-1-dinosaurs-01">
<g id="polyline-netflix-2026-line-graph-1-dinosaurs-01">
<polyline points="200,831.43 301.33,787.45 402.67,742.1 504,700.42 605.33,663.82 706.67,624.01 808,584.06 909.33,549.08 1010.67,515.45 1112,480.69 1213.33,438.95 1314.67,400.01 1416,364.12 1517.33,332.56 1618.67,297.71 1720,259.49" stroke-linecap="round" style="fill:rgb(0,114,178); fill-opacity:0; stroke:rgb(0,114,178); stroke-opacity:1; stroke-width:2" stroke-dasharray="14 4"/>
</g>
<g id="markers-netflix-2026-line-graph-1-dinosaurs-01">
<circle cx="200" cy="831.43" r="6" style="fill:rgb(0,114,178); fill-opacity:1; stroke:rgb(0,114,178); stroke-opacity:0; stroke-width:2"><title>dinosaurs-01
week: 1
1,101,985</title></circle>
<circle cx="301.33" cy="787.45" r="6" style="fill:rgb(0,114,178); fill-opacity:1; stroke:rgb(0,114,178); stroke-opacity:0; stroke-width:2"><title>dinosaurs-01
week: 2
2,358,668</title></circle>
<circle cx="402.67" cy="742.1" r="6" style="fill:rgb(0,114,178); fill-opacity:1; stroke:rgb(0,114,178); stroke-opacity:0; stroke-width:2"><title>dinosaurs-01
week: 3
3,654,319</title></circle>
<circle cx="504" cy="700.42" r="6" style="fill:rgb(0,114,178); fill-opacity:1; stroke:rgb(0,114,178); stroke-opacity:0; stroke-width:2"><title>dinosaurs-01
week: 4
4,845,176</title></circle>
<circle cx="605.33" cy="663.82" r="6" style="fill:rgb(0,114,178); fill-opacity:1; stroke:rgb(0,114,178); stroke-opacity:0; stroke-width:2"><title>dinosaurs-01
week: 5
5,890,858</title></circle>
<circle cx="706.67" cy="624.01" r="6" style="fill:rgb(0,114,178); fill-opacity:1; stroke:rgb(0,114,178); stroke-opacity:0; stroke-width:2"><title>dinosaurs-01
week: 6
7,028,295</title></circle>
<circle cx="808" cy="584.06" r="6" style="fill:rgb(0,114,178); fill-opacity:1; stroke:rgb(0,114,178); stroke-opacity:0; stroke-width:2"><title>dinosaurs-01
week: 7
8,169,605</title></circle>
<circle cx="909.33" cy="549.08" r="6" style="fill:rgb(0,114,178); fill-opacity:1; stroke:rgb(0,114,178); stroke-opacity:0; stroke-width:2"><title>dinosaurs-01
week: 8
9,169,286</title></circle>
<circle cx="1010.67" cy="515.45" r="6" style="fill:rgb(0,114,178); fill-opacity:1; stroke:rgb(0,114,178); stroke-opacity:0; stroke-width:2"><title>dinosaurs-01
week: 9
10,130,130</title></circle>
<circle cx="1112" cy="480.69" r="6" style="fill:rgb(0,114,178); fill-opacity:1; stroke:rgb(0,114,178); stroke-opacity:0; stroke-width:2"><title>dinosaurs-01
week: 10
11,123,104</title></circle>
<circle cx="1213.33" cy="438.95" r="6" style="fill:rgb(0,114,178); fill-opacity:1; stroke:rgb(0,114,178); stroke-opacity:0; stroke-width:2"><title>dinosaurs-01
week: 11
12,315,825</title></circle>
<circle cx="1314.67" cy="400.01" r="6" style="fill:rgb(0,114,178); fill-opacity:1; stroke:rgb(0,114,178); stroke-opacity:0; stroke-width:2"><title>dinosaurs-01
week: 12
13,428,378</title></circle>
<circle cx="1416" cy="364.12" r="6" style="fill:rgb(0,114,178); fill-opacity:1; stroke:rgb(0,114,178); stroke-opacity:0; stroke-width:2"><title>dinosaurs-01
week: 13
14,453,837</title></circle>
<circle cx="1517.33" cy="332.56" r="6" style="fill:rgb(0,114,178); fill-opacity:1; stroke:rgb(0,114,178); stroke-opacity:0; stroke-width:2"><title>dinosaurs-01
week: 14
15,355,506</title></circle>
<circle cx="1618.67" cy="297.71" r="6" style="fill:rgb(0,114,178); fill-opacity:1; stroke:rgb(0,114,178); stroke-opacity:0; stroke-width:2"><title>dinosaurs-01
week: 15
16,351,110</title></circle>
<circle cx="1720" cy="259.49" r="6" style="fill:rgb(0,114,178); fill-opacity:1; stroke:rgb(0,114,178); stroke-opacity:0; stroke-width:2"><title>dinosaurs-01
week: 16
17,443,141</title></circle>
</g>
</g>
<line x1="1760" y1="230" x2="1792" y2="230" stroke="rgb(0,114,178)" stroke-width="2" stroke-dasharray="14 4"/>
<text x="1800" y="235" class="small" font-size="14">2026 · dinosaurs-01</text>
</g>
</svg>
